HIERARCHY
ROOT Hips
{
  OFFSET 0.0574927 36.779 -0.12591
  CHANNELS 6 Xposition Yposition Zposition Zrotation Xrotation Yrotation
  JOINT LeftHip
  {
    OFFSET 3.42547 0.212272 -0.0227438
    CHANNELS 6 Xposition Yposition Zposition Zrotation Xrotation Yrotation
    JOINT LeftKnee
    {
      OFFSET -0.018548 -18.3322 -2.14959
      CHANNELS 6 Xposition Yposition Zposition Zrotation Xrotation Yrotation
      JOINT LeftAnkle
      {
        OFFSET 0.00758781 -15.5402 -0.604396
        CHANNELS 6 Xposition Yposition Zposition Zrotation Xrotation Yrotation
        End Site
        {
          OFFSET 0.0411211 -2.84002 4.63778
        }
      }
    }
  }
  JOINT RightHip
  {
    OFFSET -3.43008 0.00898057 0.117739
    CHANNELS 6 Xposition Yposition Zposition Zrotation Xrotation Yrotation
    JOINT RightKnee
    {
      OFFSET -0.0192258 -18.3134 -2.1483
      CHANNELS 6 Xposition Yposition Zposition Zrotation Xrotation Yrotation
      JOINT RightAnkle
      {
        OFFSET -0.0180807 -15.5437 -0.617617
        CHANNELS 6 Xposition Yposition Zposition Zrotation Xrotation Yrotation
        End Site
        {
          OFFSET 0.0408474 -2.84002 4.63778
        }
      }
    }
  }
  JOINT Chest
  {
    OFFSET -0.246168 8.80688 0.14614
    CHANNELS 6 Xposition Yposition Zposition Zrotation Xrotation Yrotation
    JOINT LeftCollar
    {
      OFFSET 1.03853 10.4162 -0.708444
      CHANNELS 6 Xposition Yposition Zposition Zrotation Xrotation Yrotation
      JOINT LeftShoulder
      {
        OFFSET 5.75456 -0.229632 -1.69265
        CHANNELS 6 Xposition Yposition Zposition Zrotation Xrotation Yrotation
        JOINT LeftElbow
        {
          OFFSET 0.0005795 -12.08 0.000458036
          CHANNELS 6 Xposition Yposition Zposition Zrotation Xrotation Yrotation
          JOINT LeftWrist
          {
            OFFSET 0 -9.81999 -4.47965e-005
            CHANNELS 6 Xposition Yposition Zposition Zrotation Xrotation Yrotation
            End Site
            {
              OFFSET 0 -7.36998 0
            }
          }
        }
      }
    }
    JOINT RightCollar
    {
      OFFSET -1.08147 10.4162 -0.708445
      CHANNELS 6 Xposition Yposition Zposition Zrotation Xrotation Yrotation
      JOINT RightShoulder
      {
        OFFSET -6.03355 -0.234744 -1.69264
        CHANNELS 6 Xposition Yposition Zposition Zrotation Xrotation Yrotation
        JOINT RightElbow
        {
          OFFSET -0.000519053 -11.08 0.000365468
          CHANNELS 6 Xposition Yposition Zposition Zrotation Xrotation Yrotation
          JOINT RightWrist
          {
            OFFSET 1.34151e-005 -9.82 -7.34184e-005
            CHANNELS 6 Xposition Yposition Zposition Zrotation Xrotation Yrotation
            End Site
            {
              OFFSET 0 -7.14 0
            }
          }
        }
      }
    }
    JOINT Neck
    {
      OFFSET -0.0130101 10.4116 -1.49605
      CHANNELS 6 Xposition Yposition Zposition Zrotation Xrotation Yrotation
      JOINT Head
      {
        OFFSET 0 5.18999 0
        CHANNELS 6 Xposition Yposition Zposition Zrotation Xrotation Yrotation
        End Site
        {
          OFFSET 0 4.14001 0
        }
      }
    }
  }
}
MOTION
Frames:	4
Frame Time:	0.0333333
-0.00204209 37.0207 -0.00700379 -3.59979 -3.98841 -6.43452 3.42547 0.212273 -0.022744 11.0646 -14.4566 8.0679 -0.0185487 -18.3322 -2.14959 -0.986699 31.182 1.41686 0.00758657 -15.5402 -0.604393 -0.18912 -8.76463 -13.8359 -3.43008 0.0089819 0.117739 -2.9091 -14.2866 -4.65584 -0.0192267 -18.3134 -2.14829 0.168975 25.1492 -0.835313 -0.0180801 -15.5437 -0.617617 1.51885 -5.08584 11.6016 -0.246168 8.80687 0.14614 2.60028 17.5761 2.09119 1.03853 10.4162 -0.708444 -4.19262 8.35172 -4.85933 5.75456 -0.229632 -1.69265 21.1773 -23.7738 -23.1237 0.000637601 -12.08 3.14013e-005 1.8372 -12.3449 0.302157 1.70465e-005 -9.81999 -3.30549e-005 -2.37929 -9.46833 -58.09 -1.08147 10.4162 -0.708445 4.89243 8.52867 3.42544 -6.03355 -0.234743 -1.69264 -20.5857 -14.58 0.66961 -0.000550689 -11.08 0.000384953 -2.9868 -19.9272 -0.329851 5.94186e-006 -9.82 -3.82528e-005 4.81251 -11.0398 60.3904 -0.01301 10.4116 -1.49605 -2.07406 -3.22138 0.801728 3.02456e-007 5.18999 7.31602e-007 0.432481 -1.55787 -0.582195 
-0.00133197 37.0211 -0.00707911 -3.59929 -3.98742 -6.42218 3.42547 0.212271 -0.0227438 11.0591 -14.4528 8.06243 -0.0185494 -18.3322 -2.14959 -0.985261 31.1616 1.41638 0.00758747 -15.5402 -0.604393 -0.17919 -8.76443 -13.8351 -3.43008 0.00898289 0.117739 -2.90979 -14.2775 -4.6593 -0.0192256 -18.3134 -2.1483 0.168532 25.1301 -0.834133 -0.0180809 -15.5436 -0.61762 1.52316 -5.07545 11.6013 -0.246167 8.80687 0.146139 2.57737 17.5584 2.08517 1.03853 10.4162 -0.708445 -4.19679 8.37086 -4.86879 5.75455 -0.229629 -1.69264 21.1894 -23.7884 -23.127 0.000625933 -12.08 2.4691e-005 1.83712 -12.3448 0.302168 6.82485e-006 -9.81999 -2.66526e-005 -2.36429 -9.46066 -58.0562 -1.08147 10.4162 -0.708445 4.86714 8.54605 3.41981 -6.03355 -0.23474 -1.69265 -20.532 -14.5846 0.757187 -0.000571863 -11.08 0.000395674 -2.98683 -19.9272 -0.329832 1.15458e-005 -9.81999 -3.37967e-005 4.82094 -11.0592 60.3533 -0.0130101 10.4116 -1.49605 -2.07939 -3.1889 0.809994 2.22691e-007 5.18998 2.52872e-007 0.423493 -1.52373 -0.565797 
-0.000185657 37.0217 -0.00694941 -3.59954 -3.98633 -6.39624 3.42547 0.212272 -0.0227439 11.0512 -14.4394 8.04308 -0.01855 -18.3322 -2.14959 -0.983577 31.1371 1.41535 0.00758702 -15.5402 -0.604394 -0.173231 -8.76217 -13.8352 -3.43008 0.00898151 0.117739 -2.92467 -14.2627 -4.7104 -0.0192254 -18.3134 -2.1483 0.168461 25.1262 -0.83377 -0.0180805 -15.5437 -0.617618 1.52709 -5.07534 11.6208 -0.246167 8.80687 0.146139 2.57535 17.5495 2.07904 1.03853 10.4162 -0.708445 -4.21904 8.39173 -4.87317 5.75455 -0.229629 -1.69265 21.1938 -23.8186 -23.136 0.000692847 -12.08 3.54027e-005 1.83746 -12.3449 0.30217 1.1333e-005 -9.81999 -2.9707e-005 -2.34675 -9.45277 -58.0197 -1.08147 10.4162 -0.708444 4.82789 8.56582 3.41672 -6.03354 -0.234741 -1.69264 -20.4583 -14.5838 0.769998 -0.000536627 -11.08 0.000368523 -2.98668 -19.9271 -0.329844 1.15054e-005 -9.81999 -3.57877e-005 4.81825 -11.0808 60.3357 -0.01301 10.4116 -1.49605 -1.97155 -3.1383 0.802362 2.74915e-007 5.18998 -2.78016e-007 0.25505 -1.51161 -0.54999 
-0.000531792 37.02 -0.00957743 -3.60108 -3.9881 -6.39313 3.42547 0.212272 -0.0227439 11.047 -14.4661 8.01106 -0.018549 -18.3322 -2.14959 -0.985486 31.1653 1.4173 0.00758662 -15.5403 -0.604393 -0.173151 -8.77421 -13.8171 -3.43008 0.00898314 0.117739 -2.91652 -14.2867 -4.69091 -0.019226 -18.3134 -2.1483 0.169041 25.1528 -0.835877 -0.0180804 -15.5437 -0.617619 1.51557 -5.09307 11.6015 -0.246168 8.80688 0.14614 2.55956 17.5392 2.08633 1.03853 10.4162 -0.708445 -4.23285 8.3966 -4.86933 5.75455 -0.229629 -1.69265 21.2008 -23.8331 -23.1751 0.000590196 -12.08 2.11875e-005 1.83692 -12.3448 0.302144 7.85273e-006 -9.81999 -2.43426e-005 -2.33415 -9.44526 -57.9884 -1.08147 10.4162 -0.708445 4.79506 8.57133 3.42658 -6.03355 -0.234743 -1.69264 -20.3794 -14.5623 0.767395 -0.00054672 -11.08 0.000376177 -2.98674 -19.9271 -0.329841 2.41267e-005 -9.81999 -3.28649e-005 4.81561 -11.1023 60.3181 -0.01301 10.4116 -1.49605 -2.02395 -3.14353 0.828364 3.45718e-008 5.18999 2.87275e-007 0.310528 -1.45203 -0.53645 
